<svg version="1.1" xmlns="http://www.w3.org/2000/svg" xmlns:xlink="http://www.w3.org/1999/xlink" width="64" height="57" viewBox="0,0,64,57"><g transform="translate(-210.6,-149.89999)"><g data-paper-data="{&quot;isPaintingLayer&quot;:true}" fill-rule="nonzero" stroke="#000000" stroke-width="2" stroke-linejoin="miter" stroke-miterlimit="10" stroke-dasharray="" stroke-dashoffset="0" style="mix-blend-mode: normal"><path d="M223.5,196.5v-33h33v33z" fill="#9966ff" stroke-linecap="butt"/><path d="M213.60001,183.89999v-31h30v31z" fill="#ff6666" stroke-linecap="butt"/><path d="M211.60001,192.9v-31h30v31z" fill="#003dff" stroke-linecap="butt"/><path d="M218.60001,205.9v-31h30v31z" fill="#ffc200" stroke-linecap="butt"/><path d="M243.60001,195.9v-31h30v31z" fill="#ff00fa" stroke-linecap="butt"/><path d="M234.60001,181.9v-31h30v31z" fill="#00ff8d" stroke-linecap="butt"/><path d="M254,180c0,7.45584 -6.26801,13.5 -14,13.5c-7.73199,0 -14,-6.04416 -14,-13.5c0,-7.45584 6.26801,-13.5 14,-13.5c7.73199,0 14,6.04416 14,13.5z" fill="#ffffff" stroke-linecap="butt"/><path d="M240.60001,171.89999v14" fill="none" stroke-linecap="round"/><path d="M233,179h14" fill="none" stroke-linecap="round"/></g></g></svg>