<svg version="1.1" xmlns="http://www.w3.org/2000/svg" xmlns:xlink="http://www.w3.org/1999/xlink" width="63" height="63" viewBox="0,0,63,63"><g transform="translate(-208.5,-148.5)"><g data-paper-data="{&quot;isPaintingLayer&quot;:true}" fill-rule="nonzero" stroke-linecap="butt" stroke-linejoin="miter" stroke-miterlimit="10" stroke-dasharray="" stroke-dashoffset="0" style="mix-blend-mode: normal"><path d="M208.5,211.5v-63h63v63z" fill="#ffffff" stroke="none" stroke-width="0"/><path d="M224.60001,164.89999c0,2.20914 -1.567,4 -3.5,4c-1.933,0 -3.5,-1.79086 -3.5,-4c0,-2.20914 1.567,-4 3.5,-4c1.933,0 3.5,1.79086 3.5,4z" fill="#ffffff" stroke="#000000" stroke-width="0.5"/><path d="M224.60001,177.9c0,2.20914 -1.567,4 -3.5,4c-1.933,0 -3.5,-1.79086 -3.5,-4c0,-2.20914 1.567,-4 3.5,-4c1.933,0 3.5,1.79086 3.5,4z" fill="#ffffff" stroke="#000000" stroke-width="0.5"/><path d="M224.60001,190.9c0,2.20914 -1.567,4 -3.5,4c-1.933,0 -3.5,-1.79086 -3.5,-4c0,-2.20914 1.567,-4 3.5,-4c1.933,0 3.5,1.79086 3.5,4z" fill="#ffffff" stroke="#000000" stroke-width="0.5"/><text transform="translate(228.60001,167.25325) scale(0.22129,0.22129)" font-size="40" xml:space="preserve" fill="#000000" fill-rule="nonzero" stroke="none" stroke-width="1" stroke-linecap="butt" stroke-linejoin="miter" stroke-miterlimit="10" stroke-dasharray="" stroke-dashoffset="0" font-family="Sans Serif" font-weight="normal" text-anchor="start" style="mix-blend-mode: normal"><tspan x="0" dy="0">shopping</tspan></text><text transform="translate(229,182.64401) scale(0.22917,0.22917)" font-size="40" xml:space="preserve" fill="#000000" fill-rule="nonzero" stroke="none" stroke-width="1" stroke-linecap="butt" stroke-linejoin="miter" stroke-miterlimit="10" stroke-dasharray="" stroke-dashoffset="0" font-family="Sans Serif" font-weight="normal" text-anchor="start" style="mix-blend-mode: normal"><tspan x="0" dy="0">work</tspan></text><text transform="translate(226.60001,193.25564) scale(0.21104,0.22136)" font-size="40" xml:space="preserve" fill="#000000" fill-rule="nonzero" stroke="none" stroke-width="1" stroke-linecap="butt" stroke-linejoin="miter" stroke-miterlimit="10" stroke-dasharray="" stroke-dashoffset="0" font-family="Sans Serif" font-weight="normal" text-anchor="start" style="mix-blend-mode: normal"><tspan x="0" dy="0">important</tspan></text></g></g></svg>