<svg version="1.1" xmlns="http://www.w3.org/2000/svg" xmlns:xlink="http://www.w3.org/1999/xlink" width="60.5" height="56.33334" viewBox="0,0,60.5,56.33334"><g transform="translate(-209.75,-151.83334)"><g data-paper-data="{&quot;isPaintingLayer&quot;:true}" fill-rule="nonzero" stroke-linejoin="miter" stroke-miterlimit="10" stroke-dasharray="" stroke-dashoffset="0" style="mix-blend-mode: normal"><path d="M270,180.00002c0,15.41795 -13.43146,27.91667 -30,27.91667c-16.56854,0 -30,-12.49872 -30,-27.91667c0,-15.41795 13.43146,-27.91667 30,-27.91667c16.56854,0 30,12.49872 30,27.91667z" fill="#ffffff" stroke="#000000" stroke-width="0.5" stroke-linecap="butt"/><path d="M258.83333,180c0,9.67905 -8.43197,17.52546 -18.83333,17.52546c-10.40136,0 -18.83333,-7.84642 -18.83333,-17.52546c0,-9.67905 8.43197,-17.52546 18.83333,-17.52546c10.40136,0 18.83333,7.84642 18.83333,17.52546z" fill="#ffffff" stroke="#000000" stroke-width="5" stroke-linecap="butt"/><path d="M246.32778,189.07809v-13.64815h19.02469v13.64815z" fill="#ffffff" stroke="none" stroke-width="0" stroke-linecap="butt"/><path d="M246.53457,172.12129l10.95988,3.51543l4.75617,-8.4784" fill="none" stroke="#000000" stroke-width="5" stroke-linecap="round"/></g></g></svg>